# xmcd
#
# Track frame offsets:
#	188
#	14858
#	24920
#	45093
#	57440
#	68210
#	80453
#	97025
#	109190
#	125323
#	148535
#	172735
#	193123
#	208003
#	225873
#	246435
#	257335
#
# Disc length: 3805 seconds
#
# Revision: 1
# Processed by: cddbd v1.5.1PL2 Copyright (c) Steve Scherf et al.
# Submitted via: dBpowerAMP V4.0
#
DISCID=de0edb11
DTITLE=Glen Campbell - Rhinestone Cowboy
DYEAR=1900
DGENRE=Country
TTITLE0=Rhinestone Cowboy
TTITLE1=Gentle on my Mind (Live)
TTITLE2=Medely - Wichita Lineman - Galveston - Country Boy
TTITLE3=By The Time I Get to Phoenix
TTITLE4=Dreams of The Everyday Housewife 
TTITLE5=Heartache Number Three
TTITLE6=Please Come to Boston 
TTITLE7=It's Only Make Believe
TTITLE8=Crying
TTITLE9=Blue Grass Medley
TTITLE10=Milk Cow Blues
TTITLE11=Rollin' (in my Sweet Baby's Arms)
TTITLE12=I'm so Lonesome I Could Cry
TTITLE13=Southern Nights
TTITLE14=Amazing Grace
TTITLE15=Try a Little Kindness
TTITLE16=Mull of Kintyre
EXTD=L.T. Series (LT 5125)
EXTT0=
EXTT1=
EXTT2=
EXTT3=
EXTT4=
EXTT5=
EXTT6=
EXTT7=
EXTT8=
EXTT9=
EXTT10=
EXTT11=
EXTT12=
EXTT13=
EXTT14=
EXTT15=
EXTT16=
PLAYORDER=
